<?xml version="1.0" encoding="utf-8"?>
<svg xmlns="http://www.w3.org/2000/svg" version="1.1" width="600" height="600" viewBox="0 0 600 600" xmlns:bx="https://boxy-svg.com"><defs><clipPath id="clip_2"><path transform="matrix(.24,0,0,.24,0,0)" d="M0 0H2500V2500H0Z"/></clipPath><clipPath id="clip_3"><path transform="matrix(.24,0,0,.24,0,0)" d="M0 0H2500V2500H0Z"/></clipPath><clipPath id="clip_4"><path transform="matrix(.24,0,0,.24,0,0)" d="M332.03126 332.01829H2167.9688V2167.9559H332.03126Z"/></clipPath><clipPath id="clip_5"><path transform="matrix(.24,0,0,.24,0,0)" d="M2160.4908 1250.026C2160.4908 1752.9213 1752.8043 2160.4779 1250.039 2160.4779 747.27346 2160.4779 339.58723 1752.7914 339.58723 1250.026 339.58723 747.26046 747.1437 339.57426 1250.039 339.57426 1752.9342 339.57426 2160.4908 747.26046 2160.4908 1250.026"/></clipPath><clipPath id="clip_6"><path transform="matrix(.24,0,0,.24,0,0)" d="M0 0H2500V2500H0Z"/></clipPath><clipPath id="clip_7"><path transform="matrix(.24,0,0,.24,0,0)" d="M0 0H2500V2500H0Z"/></clipPath><clipPath id="clip_8"><path transform="matrix(.24,0,0,.24,0,0)" d="M58.59375 58.58078H2441.4063V2441.3934H58.59375Z"/></clipPath><clipPath id="clip_9"><path transform="matrix(.24,0,0,.24,0,0)" d="M1892.1156 1320.2005H2292.2784 2395.0108C2416.4134 1320.2005 2434.0543 1303.208 2434.703 1281.9353 2435.0919 1271.2988 2435.2218 1260.792 2435.2218 1250.1558 2435.2218 586.1576 1889.1321 49.6669 1221.5022 65.36211 592.6562 80.019618 80.032588 592.77297 65.24536 1221.3595 49.550157 1888.9895 586.0409 2435.0789 1250.039 2435.0789 1801.5763 2435.0789 2264.9093 2058.1346 2397.0863 1547.8458 2408.6307 1503.6138 2374.9053 1460.4197 2329.1168 1460.4197 2297.2076 1460.4197 2269.449 1482.2112 2261.407 1513.0829 2143.4984 1967.4656 1727.3807 2301.7347 1234.4734 2294.6004 664.77639 2286.2989 202.22173 1814.2752 205.20511 1244.4484 208.05876 669.95187 674.7642 205.06243 1250.039 205.06243 1803.522 205.06243 2256.0887 635.4483 2292.2784 1179.7218H1892.1156V1320.2005Z"/></clipPath><clipPath id="clip_10"><path transform="matrix(.24,0,0,.24,0,0)" d="M0 0H2500V2500H0Z"/></clipPath><clipPath id="clip_11"><path transform="matrix(.24,0,0,.24,0,0)" d="M0 0H2500V2500H0Z"/></clipPath><clipPath id="clip_12"><path transform="matrix(.24,0,0,.24,0,0)" d="M1035.1563 634.7526H1191.4063V1865.2214H1035.1563Z"/></clipPath><clipPath id="clip_13"><path transform="matrix(.24,0,0,.24,0,0)" d="M1188.166 714.0541V1785.9978C1188.166 1826.3384 1155.4785 1859.1557 1115.0082 1859.1557 1074.538 1859.1557 1041.8505 1826.4682 1041.8505 1785.9978V714.0541C1041.8505 673.7135 1074.538 640.89627 1115.0082 640.89627 1155.4785 640.89627 1188.166 673.5838 1188.166 714.0541"/></clipPath><clipPath id="clip_14"><path transform="matrix(.24,0,0,.24,0,0)" d="M0 0H2500V2500H0Z"/></clipPath><clipPath id="clip_15"><path transform="matrix(.24,0,0,.24,0,0)" d="M0 0H2500V2500H0Z"/></clipPath><clipPath id="clip_16"><path transform="matrix(.24,0,0,.24,0,0)" d="M1240.2344 751.9401H1894.5313V1748.0339H1240.2344Z"/></clipPath><clipPath id="clip_17"><path transform="matrix(.24,0,0,.24,0,0)" d="M1783.4166 810.04129 1247.5744 760.6208V1074.3953L1418.0166 1166.3615V1108.6394C1418.0166 1089.4419 1432.8037 1081.5296 1450.704 1091.2579L1603.3757 1173.6254V1114.4765C1603.3757 1095.9276 1614.92 1092.555 1629.0587 1107.0829L1795.7393 1278.9518C1809.8779 1293.4797 1806.3757 1302.5596 1788.0862 1298.9275L1643.7162 1270.9097V1349.2561C1643.7162 1368.5831 1629.0587 1376.3659 1611.0286 1366.6376L1494.2874 1303.7269V1412.6854C1494.2874 1431.364 1480.1487 1438.8873 1462.7673 1429.548L1247.5744 1313.4555V1739.3014L1783.5463 1689.881C1845.0299 1684.1735 1892.2453 1632.548 1892.2453 1570.8049V929.1173C1892.2453 867.2445 1845.1597 815.6189 1783.5463 810.04129"/></clipPath><clipPath id="clip_18"><path transform="matrix(.24,0,0,.24,0,0)" d="M0 0H2500V2500H0Z"/></clipPath><clipPath id="clip_19"><path transform="matrix(.24,0,0,.24,0,0)" d="M0 0H2500V2500H0Z"/></clipPath><clipPath id="clip_20"><path transform="matrix(.24,0,0,.24,0,0)" d="M605.46878 1386.7058H986.3281V1523.4246H605.46878Z"/></clipPath><clipPath id="clip_21"><path transform="matrix(.24,0,0,.24,0,0)" d="M607.8326 1456.2688C607.8326 1492.1992 637.0179 1521.3844 672.9482 1521.3844H982.57186V1391.2828H673.07797C637.1476 1391.2828 607.9623 1420.4682 607.9623 1456.2688"/></clipPath><clipPath id="clip_22"><path transform="matrix(.24,0,0,.24,0,0)" d="M0 0H2500V2500H0Z"/></clipPath><clipPath id="clip_23"><path transform="matrix(.24,0,0,.24,0,0)" d="M0 0H2500V2500H0Z"/></clipPath><clipPath id="clip_24"><path transform="matrix(.24,0,0,.24,0,0)" d="M605.46878 976.5495H986.3281V1113.2683H605.46878Z"/></clipPath><clipPath id="clip_25"><path transform="matrix(.24,0,0,.24,0,0)" d="M607.8326 1043.6535C607.8326 1079.5838 637.0179 1108.7692 672.9482 1108.7692H982.57186V978.5378H673.07797C637.1476 978.5378 607.9623 1007.723 607.9623 1043.5237"/></clipPath><bx:export><bx:file format="svg" href="#object-0" path="Sem título.svg"/><bx:file format="svg" href="#object-2" path="Sem título 3.svg"/><bx:file format="svg" href="#object-3" path="Sem título 4.svg"/><bx:file format="svg" href="#object-4" path="Sem título 5.svg"/><bx:file format="svg" href="#object-5" path="Sem título 6.svg"/><bx:file format="svg" href="#object-6" path="Sem título 7.svg"/><bx:file format="svg" path="Sem título 8.svg"/><bx:file format="svg" path="Sem título 2.svg" excluded="true"/></bx:export></defs><g><g clip-path="url(#clip_2)" id="object-0"><g clip-path="url(#clip_3)"><g clip-path="url(#clip_4)"><g clip-path="url(#clip_5)"><path transform="matrix(2.34375,0,0,2.34375,-.000000000000042632565,-.003113099)" d="M0 0H256V256H0Z" fill="#ffcb00"/></g></g></g></g><g clip-path="url(#clip_6)" id="object-2"><g clip-path="url(#clip_7)"><g clip-path="url(#clip_8)"><g clip-path="url(#clip_9)"><path transform="matrix(2.34375,0,0,2.34375,-.000000000000042632565,-.003113099)" d="M0 0H256V256H0Z" fill="#232a31"/></g></g></g></g><g clip-path="url(#clip_10)" id="object-4"><g clip-path="url(#clip_11)"><g clip-path="url(#clip_12)"><g clip-path="url(#clip_13)"><path transform="matrix(2.34375,0,0,2.34375,-.000000000000042632565,-.003113099)" d="M0 0H256V256H0Z" fill="#232a31"/></g></g></g></g><g clip-path="url(#clip_14)" id="object-3"><g clip-path="url(#clip_15)"><g clip-path="url(#clip_16)"><g clip-path="url(#clip_17)"><path transform="matrix(2.34375,0,0,2.34375,-.000000000000042632565,-.003113099)" d="M0 0H256V256H0Z" fill="#232a31"/></g></g></g></g><g clip-path="url(#clip_18)" id="object-5"><g clip-path="url(#clip_19)"><g clip-path="url(#clip_20)"><g clip-path="url(#clip_21)"><path d="M0 0H256V256H0Z" fill="#232a31" transform="matrix(2.34375,0,0,2.34375,-.000000000000042632565,-.003113099)"/></g></g></g></g><g clip-path="url(#clip_22)" id="object-6"><g clip-path="url(#clip_23)"><g clip-path="url(#clip_24)"><g clip-path="url(#clip_25)"><path transform="matrix(2.34375,0,0,2.34375,-.000000000000042632565,-.003113099)" d="M0 0H256V256H0Z" fill="#232a31"/></g></g></g></g></g></svg>